<region>
sample=$SAMPLE_DIR/black_cortex_hihat_op_2_edg_a_01.wav
hivel=12
seq_length=2

<region>
sample=$SAMPLE_DIR/black_cortex_hihat_op_2_edg_b_01.wav
hivel=12
seq_length=2
seq_position=2

<region>
sample=$SAMPLE_DIR/black_cortex_hihat_op_2_edg_a_02.wav
lovel=13
hivel=25
seq_length=2

<region>
sample=$SAMPLE_DIR/black_cortex_hihat_op_2_edg_b_02.wav
lovel=13
hivel=25
seq_length=2
seq_position=2

<region>
sample=$SAMPLE_DIR/black_cortex_hihat_op_2_edg_a_03.wav
lovel=26
hivel=38
seq_length=2

<region>
sample=$SAMPLE_DIR/black_cortex_hihat_op_2_edg_b_03.wav
lovel=26
hivel=38
seq_length=2
seq_position=2

<region>
sample=$SAMPLE_DIR/black_cortex_hihat_op_2_edg_a_04.wav
lovel=39
hivel=50
seq_length=2

<region>
sample=$SAMPLE_DIR/black_cortex_hihat_op_2_edg_b_04.wav
lovel=39
hivel=50
seq_length=2
seq_position=2

<region>
sample=$SAMPLE_DIR/black_cortex_hihat_op_2_edg_a_05.wav
lovel=51
hivel=63
seq_length=2

<region>
sample=$SAMPLE_DIR/black_cortex_hihat_op_2_edg_b_05.wav
lovel=51
hivel=63
seq_length=2
seq_position=2

<region>
sample=$SAMPLE_DIR/black_cortex_hihat_op_2_edg_a_06.wav
lovel=64
hivel=76
seq_length=2

<region>
sample=$SAMPLE_DIR/black_cortex_hihat_op_2_edg_b_06.wav
lovel=64
hivel=76
seq_length=2
seq_position=2

<region>
sample=$SAMPLE_DIR/black_cortex_hihat_op_2_edg_a_07.wav
lovel=77
hivel=88
seq_length=2

<region>
sample=$SAMPLE_DIR/black_cortex_hihat_op_2_edg_b_07.wav
lovel=77
hivel=88
seq_length=2
seq_position=2

<region>
sample=$SAMPLE_DIR/black_cortex_hihat_op_2_edg_a_08.wav
lovel=89
hivel=101
seq_length=2

<region>
sample=$SAMPLE_DIR/black_cortex_hihat_op_2_edg_b_08.wav
lovel=89
hivel=101
seq_length=2
seq_position=2

<region>
sample=$SAMPLE_DIR/black_cortex_hihat_op_2_edg_a_09.wav
lovel=102
hivel=114
seq_length=2

<region>
sample=$SAMPLE_DIR/black_cortex_hihat_op_2_edg_b_09.wav
lovel=102
hivel=114
seq_length=2
seq_position=2

<region>
sample=$SAMPLE_DIR/black_cortex_hihat_op_2_edg_a_10.wav
lovel=115
seq_length=2

<region>
sample=$SAMPLE_DIR/black_cortex_hihat_op_2_edg_b_10.wav
lovel=115
seq_length=2
seq_position=2

